<?xml version="1.0" encoding="UTF-8" standalone="no"?>
<!-- Created with Inkscape (http://www.inkscape.org/) -->

<svg
   width="270"
   height="270"
   viewBox="0 0 71.437505 71.437503"
   version="1.1"
   id="svg87582"
   inkscape:version="1.1.2 (1:1.1+202202050950+0a00cf5339)"
   sodipodi:docname="explosion.svg"
   xmlns:inkscape="http://www.inkscape.org/namespaces/inkscape"
   xmlns:sodipodi="http://sodipodi.sourceforge.net/DTD/sodipodi-0.dtd"
   xmlns="http://www.w3.org/2000/svg"
   xmlns:svg="http://www.w3.org/2000/svg">
  <sodipodi:namedview
     id="namedview87584"
     pagecolor="#ffffff"
     bordercolor="#666666"
     borderopacity="1.0"
     inkscape:pageshadow="2"
     inkscape:pageopacity="0.0"
     inkscape:pagecheckerboard="0"
     inkscape:document-units="mm"
     showgrid="false"
     width="1920px"
     units="px"
     inkscape:zoom="0.70637021"
     inkscape:cx="-208.81402"
     inkscape:cy="224.38659"
     inkscape:window-width="1920"
     inkscape:window-height="976"
     inkscape:window-x="0"
     inkscape:window-y="0"
     inkscape:window-maximized="1"
     inkscape:current-layer="layer1" />
  <defs
     id="defs87579" />
  <g
     inkscape:label="Capa 1"
     inkscape:groupmode="layer"
     id="layer1">
    <g
       id="g24376"
       transform="matrix(0.23811848,0,0,0.23811848,-338.62502,0.40390476)">
      <path
         id="path21945"
         style="fill:#d73919;stroke-width:0.887341;stroke-linecap:round;stroke-linejoin:round"
         inkscape:transform-center-x="0.76811237"
         inkscape:transform-center-y="-46.198698"
         d="m 1714.0471,222.86401 -103.7953,-6.61162 -4.6534,71.72427 -64.5351,-48.00258 -88.4086,12.76474 37.5428,-70.38543 -58.8786,-43.54014 57.5917,-30.82299 -13.6194,-93.589307 79.127,65.997501 58.1295,-61.945866 15.1366,72.413988 58.3686,12.806704 -30.7847,54.7042 z"
         sodipodi:nodetypes="ccccccccccccccc" />
      <path
         id="path21945-3"
         style="fill:#f18102;fill-opacity:1;stroke-width:0.526517;stroke-linecap:round;stroke-linejoin:round"
         inkscape:transform-center-x="0.45575917"
         inkscape:transform-center-y="-27.412718"
         d="m 1658.6154,189.86873 -67.5654,5.81621 -16.978,44.82917 -24.0761,-30.75353 -46.1365,16.63369 15.9545,-50.82383 -48.7704,-28.46916 48.0068,-15.65537 -2.511,-43.663934 41.3809,27.291914 41.8691,-37.406948 1.6046,43.618378 34.6338,7.59904 -18.2665,32.4596 z"
         sodipodi:nodetypes="ccccccccccccccc" />
      <path
         id="path21945-3-6"
         style="fill:#f1d217;fill-opacity:1;stroke-width:0.260907;stroke-linecap:round;stroke-linejoin:round"
         inkscape:transform-center-x="0.22586475"
         inkscape:transform-center-y="-13.583891"
         d="m 1610.1671,181.20909 -30.5191,-1.94403 -6.4847,27.44848 -13.859,-20.47354 -19.8408,7.3485 4.8847,-24.29082 -28.2393,-11.55123 27.8609,-10.31391 -9.2162,-25.88285 28.4776,17.76998 14.2033,-14.97688 7.3392,18.05484 26.5614,-0.37085 -18.4508,20.22121 z"
         sodipodi:nodetypes="ccccccccccccccc" />
    </g>
  </g>
</svg>
